<?xml version="1.0" encoding="UTF-8"?>
<svg id="_レイヤー_2" data-name="レイヤー 2" xmlns="http://www.w3.org/2000/svg" viewBox="0 0 172.87 42.03">
  <defs>
    <style>
      .cls-1 {
        fill: #fff;
        stroke-width: 0px;
      }
    </style>
  </defs>
  <g id="_レイヤー_2-2" data-name="レイヤー 2">
    <g>
      <g>
        <g>
          <path class="cls-1" d="m1.51,16.05h22.7l-1.48,7.68h-3.03v-4.65l-.68-.46h-3.51l-3.82,19.82.41.46,2.77.3v2.23H1.88v-2.27l2.92-.18.54-.65,3.69-19.71h-3.47l-.76.46-1.55,4.65H0l1.51-7.68Z"/>
          <path class="cls-1" d="m36.94,23.45l2.16-1.05h2.57l-2.49,12.22c-.09.38-.15.75-.19,1.1-.04.35-.06.69-.06.99,0,.69.16,1.22.47,1.61.31.39.75.58,1.3.58.37,0,.78-.05,1.23-.16.45-.1.96-.27,1.54-.49l-.07,1.96c-1.29.51-2.53.88-3.7,1.14-1.18.25-2.3.38-3.37.38-1.15,0-2.01-.25-2.6-.74-.59-.49-.89-1.21-.89-2.16-1.22.97-2.41,1.7-3.56,2.18-1.16.48-2.29.72-3.4.72-1.82,0-3.26-.65-4.31-1.94-1.05-1.29-1.58-3.06-1.58-5.32,0-1.92.35-3.67,1.06-5.24.71-1.57,1.78-3,3.2-4.27.92-.82,2.02-1.45,3.28-1.89,1.26-.44,2.61-.66,4.04-.66.76,0,1.57.08,2.42.24.85.16,1.84.43,2.97.81Zm-3.84,1.14c-.07-.02-.14-.04-.21-.05-.07,0-.18,0-.32,0-1.66,0-3.07.88-4.22,2.65-1.15,1.76-1.73,3.95-1.73,6.55,0,1.4.24,2.45.73,3.14.49.69,1.22,1.03,2.19,1.03.38,0,.85-.09,1.4-.27.55-.18,1.23-.47,2.03-.86l1.75-9.91-1.63-2.27Z"/>
          <path class="cls-1" d="m52.49,22.4h2.05l-.92,3.97c1.69-1.34,3.18-2.34,4.47-2.99,1.29-.65,2.41-.98,3.36-.98,1.26,0,2.28.39,3.08,1.17.8.78,1.2,1.77,1.2,2.98,0,.36-.03.78-.1,1.26-.07.49-.16,1.01-.29,1.57l-1.05,4.46c-.15.65-.26,1.23-.34,1.74-.08.51-.12.92-.12,1.23,0,.72.16,1.25.47,1.6.31.34.8.51,1.47.51.27,0,.61-.04,1.02-.13.41-.09.89-.22,1.44-.4v1.81c-1.54.51-2.91.88-4.1,1.14-1.19.25-2.2.38-3.01.38-1.11,0-1.96-.26-2.57-.78-.6-.52-.91-1.26-.91-2.22,0-.37.09-1,.26-1.9.01-.09.02-.16.04-.22l1.16-5.56c.11-.5.2-.97.26-1.4.06-.43.09-.8.09-1.11,0-.64-.16-1.14-.49-1.5-.33-.36-.77-.54-1.32-.54-.44,0-.97.14-1.59.42-.62.28-1.47.78-2.55,1.49l-2.18,13.03h-6.52l3.03-15.16-3.25-.28v-1.55l7.9-2.03Z"/>
          <path class="cls-1" d="m85.74,21.98l3.29,2.27-12.56,11.8,3.1-.9c.44.63.99,1.11,1.63,1.43.65.33,1.36.49,2.15.49.25,0,.53-.04.84-.11.31-.07.7-.2,1.17-.37l-2.84-3.21c.3-.64.66-1.12,1.11-1.45.44-.33.94-.49,1.5-.49.78,0,1.41.29,1.91.86.5.57.75,1.31.75,2.21s-.25,1.84-.76,2.87c-.5,1.03-1.16,1.9-1.98,2.61-.55.51-1.23.9-2.01,1.17-.79.28-1.61.42-2.47.42s-2.15-.28-3.8-.84c-1.64-.56-2.9-.85-3.78-.86l-.91,2.16-3.25-1.94,12.28-12.1-3.03.61c-.79-.68-1.43-1.15-1.91-1.4-.49-.26-.96-.39-1.41-.39-.33,0-.66.05-.99.14-.33.09-.64.22-.93.4l2.53,2.66c-.42.68-.87,1.19-1.34,1.52-.47.34-.99.51-1.54.51-.59,0-1.07-.24-1.44-.73-.37-.49-.55-1.12-.55-1.91s.19-1.57.56-2.42c.38-.85.91-1.67,1.6-2.46.68-.78,1.42-1.37,2.23-1.77.81-.41,1.64-.61,2.5-.61.75,0,1.91.33,3.48,1,1.57.66,2.83,1.08,3.78,1.26l1.09-2.42Z"/>
          <path class="cls-1" d="m105.81,23.45l2.16-1.05h2.57l-2.49,12.22c-.09.38-.15.75-.19,1.1-.04.35-.06.69-.06.99,0,.69.16,1.22.47,1.61.31.39.75.58,1.3.58.37,0,.78-.05,1.23-.16.45-.1.96-.27,1.54-.49l-.07,1.96c-1.29.51-2.53.88-3.7,1.14-1.18.25-2.3.38-3.37.38-1.15,0-2.01-.25-2.6-.74s-.89-1.21-.89-2.16c-1.22.97-2.41,1.7-3.56,2.18s-2.29.72-3.4.72c-1.82,0-3.26-.65-4.31-1.94-1.05-1.29-1.58-3.06-1.58-5.32,0-1.92.35-3.67,1.06-5.24.71-1.57,1.78-3,3.2-4.27.92-.82,2.02-1.45,3.28-1.89,1.26-.44,2.61-.66,4.04-.66.76,0,1.57.08,2.42.24.85.16,1.84.43,2.97.81Zm-3.84,1.14c-.07-.02-.14-.04-.21-.05-.07,0-.18,0-.32,0-1.66,0-3.07.88-4.22,2.65-1.15,1.76-1.73,3.95-1.73,6.55,0,1.4.24,2.45.73,3.14.49.69,1.22,1.03,2.19,1.03.38,0,.85-.09,1.4-.27.55-.18,1.23-.47,2.03-.86l1.75-9.91-1.63-2.27Z"/>
          <path class="cls-1" d="m121.32,22.4h2.05l-.92,3.97c1.69-1.34,3.18-2.34,4.47-2.99,1.29-.65,2.41-.98,3.36-.98,1.26,0,2.28.39,3.08,1.17.8.78,1.2,1.77,1.2,2.98,0,.36-.03.78-.1,1.26-.07.49-.16,1.01-.29,1.57l-1.05,4.46c-.15.65-.26,1.23-.34,1.74-.08.51-.12.92-.12,1.23,0,.72.16,1.25.47,1.6.31.34.8.51,1.47.51.27,0,.61-.04,1.02-.13.41-.09.89-.22,1.44-.4v1.81c-1.54.51-2.91.88-4.1,1.14-1.19.25-2.2.38-3.01.38-1.11,0-1.96-.26-2.57-.78-.6-.52-.9-1.26-.9-2.22,0-.37.09-1,.26-1.9.01-.09.02-.16.04-.22l1.16-5.56c.11-.5.2-.97.26-1.4.06-.43.09-.8.09-1.11,0-.64-.16-1.14-.49-1.5-.33-.36-.77-.54-1.32-.54-.44,0-.97.14-1.59.42-.62.28-1.47.78-2.55,1.49l-2.18,13.03h-6.52l3.03-15.16-3.25-.28v-1.55l7.9-2.03Z"/>
          <path class="cls-1" d="m144.81,22.4h2.38l-2.27,11.4c-.12.65-.22,1.25-.28,1.8-.06.55-.09,1.02-.09,1.4,0,.53.15.94.44,1.25.3.31.7.46,1.22.46.27,0,.65-.04,1.13-.13.48-.09,1.1-.22,1.87-.4v1.84c-1.61.57-3.02.99-4.23,1.26-1.21.27-2.27.41-3.2.41-1.27,0-2.21-.27-2.83-.8s-.92-1.35-.92-2.44c0-.28.04-.71.13-1.27.09-.56.21-1.22.37-1.97l1.92-9.05-3.25-.42v-1.74l7.61-1.59Zm.76-9.2c1.02,0,1.81.25,2.35.74.55.49.82,1.19.82,2.11,0,1.06-.37,1.93-1.11,2.6-.74.68-1.69,1.02-2.86,1.02-.92,0-1.67-.26-2.24-.78-.57-.52-.86-1.19-.86-2,0-1.05.37-1.92,1.12-2.62s1.67-1.05,2.78-1.05Z"/>
          <path class="cls-1" d="m166.35,23.45l2.16-1.05h2.57l-2.49,12.22c-.09.38-.15.75-.19,1.1s-.06.69-.06.99c0,.69.16,1.22.47,1.61.31.39.75.58,1.3.58.37,0,.78-.05,1.23-.16.45-.1.96-.27,1.54-.49l-.07,1.96c-1.29.51-2.53.88-3.7,1.14-1.18.25-2.3.38-3.37.38-1.15,0-2.01-.25-2.6-.74s-.89-1.21-.89-2.16c-1.22.97-2.41,1.7-3.56,2.18s-2.29.72-3.4.72c-1.82,0-3.26-.65-4.31-1.94-1.05-1.29-1.58-3.06-1.58-5.32,0-1.92.35-3.67,1.06-5.24.71-1.57,1.78-3,3.2-4.27.92-.82,2.02-1.45,3.28-1.89,1.26-.44,2.61-.66,4.04-.66.76,0,1.57.08,2.42.24.85.16,1.84.43,2.97.81Zm-3.84,1.14c-.07-.02-.14-.04-.21-.05-.07,0-.18,0-.32,0-1.66,0-3.07.88-4.22,2.65-1.15,1.76-1.73,3.95-1.73,6.55,0,1.4.24,2.45.73,3.14.49.69,1.22,1.03,2.19,1.03.38,0,.85-.09,1.4-.27.55-.18,1.23-.47,2.03-.86l1.75-9.91-1.63-2.27Z"/>
        </g>
        <g>
          <path class="cls-1" d="m6.13,10.94c0,.83-.28,1.67-.78,2.16-.37.36-.85.56-1.43.56-1.06,0-1.58-.82-1.58-1.67,0-.81.28-1.65.81-2.15.36-.35.85-.56,1.42-.56,1.07,0,1.57.76,1.57,1.65Zm-2.2-.56c-.32.32-.5,1.1-.5,1.62,0,.44.19.79.64.79.18,0,.35-.08.48-.21.33-.33.49-1.2.49-1.65,0-.4-.14-.77-.6-.77-.19,0-.37.08-.51.23Z"/>
          <path class="cls-1" d="m8.08,9.35l-.48,2.5c-.03.15-.05.31-.05.48,0,.24.14.45.46.45.36,0,.59-.24.72-.92l.48-2.52h1.03l-.46,2.44c-.23,1.21-.73,1.87-1.89,1.87-.9,0-1.36-.46-1.36-1.29,0-.19.03-.41.07-.63l.45-2.39h1.03Z"/>
          <path class="cls-1" d="m11.47,10.27h-.97l.18-.92h2.97l-.18.92h-.98l-.63,3.32h-1.03l.63-3.32Z"/>
          <path class="cls-1" d="m14.13,9.42c.33-.06.72-.09,1.12-.09.61,0,1.08.14,1.41.42.35.31.54.73.54,1.32,0,.93-.41,1.67-.9,2.05-.45.35-1,.51-1.86.51-.47,0-.91-.04-1.1-.09l.78-4.11Zm.39,3.34c.06,0,.16.02.29.02.36,0,.73-.18.95-.51.22-.33.34-.73.34-1.23,0-.54-.28-.89-.82-.89-.12,0-.2,0-.26.02l-.5,2.59Z"/>
          <path class="cls-1" d="m21.33,10.94c0,.83-.28,1.67-.78,2.16-.37.36-.85.56-1.43.56-1.06,0-1.58-.82-1.58-1.67,0-.81.28-1.65.81-2.15.36-.35.85-.56,1.42-.56,1.07,0,1.57.76,1.57,1.65Zm-2.2-.56c-.32.32-.5,1.1-.5,1.62,0,.44.19.79.64.79.18,0,.35-.08.48-.21.33-.33.49-1.2.49-1.65,0-.4-.14-.77-.6-.77-.19,0-.37.08-.51.23Z"/>
          <path class="cls-1" d="m25.45,10.94c0,.83-.28,1.67-.78,2.16-.37.36-.85.56-1.43.56-1.06,0-1.58-.82-1.58-1.67,0-.81.28-1.65.81-2.15.36-.35.85-.56,1.42-.56,1.07,0,1.57.76,1.57,1.65Zm-2.2-.56c-.32.32-.5,1.1-.5,1.62,0,.44.19.79.64.79.18,0,.35-.08.48-.21.33-.33.5-1.2.5-1.65,0-.4-.14-.77-.6-.77-.19,0-.37.08-.51.23Z"/>
          <path class="cls-1" d="m26.4,9.43c.29-.07.72-.11,1.13-.11.39,0,.82.05,1.12.24.27.17.46.44.46.83,0,.63-.39,1.03-.91,1.21v.02c.22.11.32.36.36.75.04.43.07,1.04.14,1.21h-1.05c-.03-.12-.07-.48-.1-1-.03-.48-.17-.61-.46-.61h-.17l-.3,1.61h-1.02l.8-4.17Zm.68,1.79h.28c.4,0,.69-.29.69-.67,0-.26-.2-.42-.5-.42-.13,0-.22,0-.28.02l-.2,1.07Z"/>
        </g>
      </g>
      <g>
        <path class="cls-1" d="m26.78,16.41c-.29,0-.55-.19-.63-.48-.1-.35.11-.71.46-.81l20.05-5.46,8.87-7.72c.1-.09.23-.14.36-.16L71.73,0s.08,0,.12,0l12.44.97c.13,0,.25.06.36.14l9.15,7.24,3.55.62s.1.02.14.04l4.01,1.7,2.87-.6c.07-.02.15-.02.23,0l9.21,1.29c.05,0,.11.02.16.04l5.08,2.06,16.87,1.45c.36.03.63.35.6.71-.03.36-.34.63-.71.6l-16.97-1.45c-.07,0-.13-.02-.19-.05l-5.1-2.07-9.02-1.27-2.96.62c-.13.03-.27.01-.39-.04l-4.13-1.75-3.64-.63c-.11-.02-.21-.06-.3-.13l-9.12-7.21-12.18-.95-15.57,1.75-8.83,7.69c-.07.06-.16.11-.26.14l-20.2,5.5c-.06.02-.12.02-.17.02Z"/>
        <path class="cls-1" d="m82.31,5.35s-.1,0-.14-.02l-11.56-2.57-14.63.32c-.36.02-.66-.28-.67-.64,0-.36.28-.66.64-.67l14.71-.32c.05,0,.11,0,.16.02l5.91,1.31c-.2-.16-.29-.42-.22-.67.08-.3.36-.51.68-.49l8.66.52c.36.02.64.33.62.69-.02.36-.34.64-.7.62l-5.23-.32,2.06.97c.3.14.45.49.34.81-.09.27-.35.44-.62.44Z"/>
      </g>
    </g>
  </g>
</svg>